FILE "240pTestSuite.iso" BINARY
  TRACK 01 MODE1/2048
    INDEX 01 00:00:00
    POSTGAP 00:02:00
FILE "02-neogeo.wav" WAVE
  TRACK 02 AUDIO
    PREGAP 00:02:00
    INDEX 01 00:00:00
FILE "03-neogeo.wav" WAVE
  TRACK 03 AUDIO
    INDEX 01 00:00:00
